<?xml version="1.0" encoding="utf-8"?>
<!-- Generator: Adobe Illustrator 25.4.2, SVG Export Plug-In . SVG Version: 6.00 Build 0)  -->
<svg version="1.1" id="Layer_1" xmlns="http://www.w3.org/2000/svg" xmlns:xlink="http://www.w3.org/1999/xlink" x="0px" y="0px"
	 viewBox="0 0 450 58.1" style="enable-background:new 0 0 450 58.1;" xml:space="preserve">
<style type="text/css">
	.st0{fill:#FFFFFF;}
</style>
<g>
	<g>
		<g>
			<path class="st0" d="M165.6,30.1h-12.4L141.4,2.7h-12.1l-15.6,36.5V25.5h-7.1h-3.8H90.8l3.9,8.6h8.3v1.5c-2.1,1-4.3,1.4-6.6,1.4
				c-2.4,0-4.5-0.5-6.4-1.6c-1.9-1.1-3.3-2.5-4.3-4.4c-1-1.9-1.5-4-1.5-6.4c0-3.8,1.1-6.8,3.4-9c2.3-2.3,5.3-3.4,9-3.4
				c2,0,3.9,0.4,5.7,1.2l8.1-7.5c-1.1-0.7-2.2-1.3-3.5-1.8c-3.2-1.4-6.9-2-10.9-2c-4.6,0-8.8,1-12.5,2.9c-3.7,1.9-6.5,4.6-8.6,8
				c-2.1,3.4-3.1,7.3-3.1,11.6c0,1.3,0.1,2.6,0.3,3.9l-11-25.8H48.8L37.1,30c-0.4-1.6-1.1-2.9-2-4c-1.6-1.8-3.5-3-5.6-3.8
				c-2.2-0.8-4.9-1.6-8.2-2.3c-2.9-0.6-5.1-1.2-6.4-1.8c-1.3-0.6-2-1.4-2-2.6c0-1.2,0.6-2.1,1.7-2.8c1.1-0.7,2.9-1.1,5.3-1.1
				c3.9,0,7.9,1.1,12,3.3l3.8-9.1c-2.1-1.2-4.5-2.2-7.3-2.8c-2.8-0.6-5.6-1-8.4-1c-4.2,0-7.7,0.6-10.6,1.9c-2.9,1.2-5,2.9-6.5,5
				c-1.4,2.1-2.2,4.5-2.2,7.2c0,3,0.8,5.4,2.4,7.2c1.6,1.8,3.4,3.1,5.6,3.9c2.2,0.8,4.9,1.6,8.2,2.3c3,0.7,5.1,1.3,6.5,1.9
				c1.3,0.6,2,1.5,2,2.8c0,2.4-2.4,3.5-7.1,3.5c-2.5,0-5-0.4-7.6-1.2C8.2,35.7,6,34.6,4,33.3l-4,9c2.1,1.4,4.7,2.6,8.1,3.5
				c3.3,0.9,6.7,1.3,10.2,1.3c4.1,0,7.6-0.6,10.5-1.9c0.8-0.4,1.6-0.7,2.3-1.2l-0.8,2h12.1l2.9-6.9H61h0l-3.5-8.4l-0.3-0.7h-8.1
				l5.2-12.3l4.6,11l3.5,8.3l3.7,9h13.3l-3.3-7.8c1.9,2.5,4.3,4.5,7.2,6c3.6,1.9,7.7,2.9,12.3,2.9c3.2,0,6.4-0.5,9.7-1.4
				c2.6-0.8,5-1.8,7.1-3.1l-1.5,3.5h12.1l12-28.2l5.1,12.3H132l-3.8,9.1h15.7l2.9,6.9H160l-2.9-6.9h4.5L165.6,30.1z"/>
			<polygon class="st0" points="90.8,23.4 118.3,23.4 122,14.9 94.6,14.9 			"/>
		</g>
		<g>
			<path class="st0" d="M8.5,50h3.3v1.1H9.7v2.2h1.6v1.1H9.7v3.5H8.5V50z"/>
			<path class="st0" d="M28.9,50h3.4v1.1h-2.2v2.1h1.7v1.1h-1.7v2.4h2.2v1.1h-3.4V50z"/>
			<path class="st0" d="M49.8,57.5c-0.3-0.3-0.5-0.8-0.5-1.5v-0.5h1.2v0.5c0,0.5,0.2,0.8,0.6,0.8c0.2,0,0.4-0.1,0.5-0.2
				c0.1-0.1,0.2-0.3,0.2-0.6c0-0.3-0.1-0.6-0.2-0.9c-0.2-0.3-0.4-0.6-0.8-0.9c-0.5-0.5-0.9-0.9-1.1-1.2c-0.2-0.4-0.3-0.8-0.3-1.2
				c0-0.6,0.2-1.1,0.5-1.5c0.3-0.3,0.8-0.5,1.4-0.5c0.6,0,1.1,0.2,1.4,0.5c0.3,0.3,0.5,0.8,0.5,1.5v0.3h-1.2v-0.4
				c0-0.3-0.1-0.5-0.2-0.6c-0.1-0.1-0.3-0.2-0.5-0.2c-0.4,0-0.6,0.3-0.6,0.8c0,0.3,0.1,0.6,0.2,0.8c0.2,0.3,0.4,0.6,0.8,0.9
				c0.5,0.5,0.9,0.9,1.1,1.2c0.2,0.4,0.3,0.8,0.3,1.3c0,0.7-0.2,1.2-0.5,1.5c-0.3,0.3-0.8,0.5-1.4,0.5
				C50.5,58.1,50.1,57.9,49.8,57.5z"/>
			<path class="st0" d="M71.2,51.1h-1.3V50h3.9v1.1h-1.3v6.8h-1.3V51.1z"/>
			<path class="st0" d="M90.9,50h1.3v8h-1.3V50z"/>
			<path class="st0" d="M109.2,50h1.3l0.8,6.2h0l0.8-6.2h1.1l-1.2,8h-1.7L109.2,50z"/>
			<path class="st0" d="M131,50h1.7l1.3,8h-1.3l-0.2-1.6v0h-1.4l-0.2,1.6h-1.2L131,50z M132.4,55.3l-0.6-3.9h0l-0.5,3.9H132.4z"/>
			<path class="st0" d="M151.1,50h1.3v6.8h2.1v1.1h-3.3V50z"/>
		</g>
	</g>
	<g>
		<path class="st0" d="M429.8,39.2c0.3,0,0.4,0.1,0.6,0.3l8.1,9.3c0.1,0.1,0.4,0.4,0.8,0.4h10c0.4,0,0.8-0.5,0.4-1
			c-0.2-0.2-10.7-12.3-10.7-12.3s-0.3-0.3-0.3-0.5c0-0.1,0.3-0.5,0.3-0.5l10.8-12.5c0.3-0.3,0.2-0.8-0.4-0.8H440
			c-0.6,0-0.9,0.2-1.1,0.4c0,0-7.7,8.5-8.5,9.4c-0.2,0.2-0.4,0.4-0.6,0.4s-0.4-0.1-0.6-0.4c-0.8-0.8-8.5-9.4-8.5-9.4
			c-0.2-0.2-0.4-0.4-1.1-0.4h-9.5c-0.6,0-0.7,0.4-0.4,0.8L420.5,35c0,0,0.3,0.3,0.3,0.5c0,0.1-0.3,0.5-0.3,0.5S410,48.1,409.9,48.3
			c-0.4,0.5,0,1,0.4,1h10c0.5,0,0.7-0.3,0.8-0.4l8.1-9.3C429.4,39.3,429.5,39.2,429.8,39.2"/>
		<path class="st0" d="M322.4,21.7c0.5,0,0.9,0,0.9,0.5v12.6c0,7,0,7.9,8.1,7.9h13.5c0.5,0,0.9,0,0.9,0.5v5.3c0,0.6-0.4,0.5-0.9,0.5
			h-14.9c-3.2,0-5.5-0.1-7.3-0.3c-5.2-0.6-7.7-2.4-8.6-5.9c-0.5-1.8-0.4-6.8-0.4-6.8V22.2c0-0.6,0.4-0.5,0.9-0.5H322.4"/>
		<path class="st0" d="M369.8,21.7h-27.1c-0.7,0-0.8,0.2-0.8,0.6v5.2c0,0.5,0.2,0.6,0.8,0.6h8.3c0.4,0,0.5,0.1,0.5,0.5v20.2
			c0,0.2,0.2,0.3,0.5,0.3h8.4c0.3,0,0.5-0.2,0.5-0.3V28.7c0-0.4,0.1-0.5,0.5-0.5h8.3c0.6,0,0.8-0.1,0.8-0.6v-5.1
			C370.6,21.9,370.5,21.7,369.8,21.7"/>
		<path class="st0" d="M383.2,30.3c0-0.6,0.2-1.1,0.5-1.5c0.4-0.6,1.3-0.9,2.5-0.9h8.5c1.2,0,2.1,0.3,2.5,0.9
			c0.3,0.4,0.5,0.9,0.5,1.5c0,0.7-0.3,1.4-0.8,1.8c-0.5,0.4-1.2,0.7-2.1,0.7h-8.5c-0.9,0-1.6-0.2-2.1-0.7
			C383.5,31.7,383.2,31.1,383.2,30.3 M385.7,38.3h19.7c1,0,1.5-0.1,1.5-1.3v-6.6c0-5.1-4.1-8.7-10.6-8.7l-12.1,0
			c-6.4,0-10.6,3.6-10.6,8.7v10c0,5.1,4.1,8.7,10.6,8.7h21.8c0.5,0,0.9,0,0.9-0.5v-4.9c0-0.6-0.4-0.5-0.9-0.5h-20.3
			c-1.4,0-2.5-1.1-2.5-2.5C383.2,39.4,384.3,38.3,385.7,38.3"/>
		<path class="st0" d="M290,21.7c-2.5-0.1-5.2,1.1-6.8,3.6c-1.4,2.1-13.2,19.5-15.7,23.1c-0.4,0.6,0,0.8,0.5,0.8h8.4
			c0.8-0.1,1,0,1.6-0.8c1.1-1.7,9-14.6,10.5-17c0.3-0.5,0.8-0.8,1.4-0.8c0.6,0,1.1,0.3,1.4,0.8c1.6,2.4,9.5,15.3,10.5,17
			c0.6,0.8,0.8,0.8,1.6,0.8h8.4c0.6,0,0.9-0.2,0.5-0.8c-2.4-3.6-14.3-21-15.7-23.1C295.1,22.8,292.5,21.7,290,21.7L290,21.7"/>
		<path class="st0" d="M290,0L290,0c0,0,0.1,0,0.1,0.1c0,0,1.1,3.3,3.4,5.6c2.4,2.4,5.7,3.4,5.7,3.4c0.1,0,0.1,0.1,0.1,0.1
			s0,0.1-0.1,0.1c0,0-3.3,1.1-5.7,3.4c-2.4,2.4-3.4,5.6-3.4,5.6c0,0.1-0.1,0.1-0.1,0.1s-0.1,0-0.1-0.1c0,0-1.1-3.3-3.4-5.6
			c-2.4-2.4-5.7-3.4-5.7-3.4c-0.1,0-0.1-0.1-0.1-0.1s0-0.1,0.1-0.1c0,0,3.3-1.1,5.7-3.4c2.4-2.4,3.4-5.6,3.4-5.6
			C289.9,0,290,0,290,0"/>
	</g>
	<g>
		<path class="st0" d="M193.2,24.1h2.4c1.7,0,2.5,0.9,2.5,2.7v0.9c0,1.8-0.8,2.7-2.5,2.7h-1.2v4.8h-1.2V24.1z M195.6,29.3
			c0.9,0,1.3-0.4,1.3-1.5v-1.1c0-1.1-0.4-1.5-1.3-1.5h-1.2v4.1H195.6z"/>
		<path class="st0" d="M198.8,32.6v-5.9c0-1.8,0.9-2.7,2.5-2.7c1.6,0,2.5,1,2.5,2.7v5.9c0,1.8-0.9,2.7-2.5,2.7
			C199.7,35.3,198.8,34.3,198.8,32.6z M202.6,32.6v-6.1c0-1-0.5-1.5-1.3-1.5c-0.8,0-1.3,0.5-1.3,1.5v6.1c0,1.1,0.5,1.5,1.3,1.5
			C202.2,34.2,202.6,33.7,202.6,32.6z"/>
		<path class="st0" d="M204.5,24.1h1.2l1.1,9.4l1.1-9.4h1.4l1.2,9.4l1.1-9.4h1.1l-1.4,11.1h-1.6l-1.1-8.6l-1.1,8.6h-1.7L204.5,24.1z
			"/>
		<path class="st0" d="M213.4,24.1h4.5v1.1h-3.3v3.6h2.7v1.1h-2.7V34h3.3v1.1h-4.5V24.1z"/>
		<path class="st0" d="M218.7,24.1h2.4c1.8,0,2.5,0.8,2.5,2.5v0.7c0,1.2-0.4,1.9-1.3,2.2v0c0.9,0.2,1.3,1,1.3,2.3v2
			c0,0.5,0,0.9,0.2,1.3h-1.2c-0.1-0.3-0.1-0.6-0.1-1.3v-2c0-1.2-0.4-1.6-1.5-1.6h-1v5h-1.2V24.1z M221,29c1,0,1.5-0.4,1.5-1.5v-0.8
			c0-1.1-0.4-1.5-1.3-1.5H220V29H221z"/>
		<path class="st0" d="M224.8,24.1h4.5v1.1H226v3.6h2.7v1.1H226V34h3.3v1.1h-4.5V24.1z"/>
		<path class="st0" d="M230.1,24.1h2.5c1.7,0,2.5,0.9,2.5,2.7v5.7c0,1.8-0.8,2.7-2.5,2.7h-2.5V24.1z M232.6,34
			c0.9,0,1.3-0.4,1.3-1.5v-5.8c0-1.1-0.4-1.5-1.3-1.5h-1.3V34H232.6z"/>
		<path class="st0" d="M238.4,24.1h2.5c1.8,0,2.5,0.8,2.5,2.5V27c0,1.2-0.4,1.9-1.2,2.2v0c1,0.3,1.4,1.1,1.4,2.3v0.9
			c0,1.7-0.8,2.6-2.5,2.6h-2.6V24.1z M240.7,28.8c1,0,1.5-0.4,1.5-1.5v-0.6c0-1.1-0.4-1.5-1.3-1.5h-1.2v3.6H240.7z M241,34
			c0.9,0,1.3-0.4,1.3-1.5v-0.9c0-1.2-0.4-1.7-1.6-1.7h-1.1V34H241z"/>
		<path class="st0" d="M245.9,30.3l-2.2-6.2h1.3l1.6,4.6l1.6-4.6h1.2l-2.2,6.2v4.9h-1.2V30.3z"/>
	</g>
</g>
</svg>
