<?xml version="1.0" encoding="utf-8"?>
<!-- Generator: Adobe Illustrator 25.4.2, SVG Export Plug-In . SVG Version: 6.00 Build 0)  -->
<svg version="1.1" id="Layer_1" xmlns="http://www.w3.org/2000/svg" xmlns:xlink="http://www.w3.org/1999/xlink" x="0px" y="0px"
	 viewBox="0 0 257.4 47.6" style="enable-background:new 0 0 257.4 47.6;" xml:space="preserve">
<style type="text/css">
	.st0{fill:#FFEEBD;}
	.st1{fill:#ED1C24;}
	.st2{fill:#0072BC;}
	.st3{fill:#FFC20E;}
	.st4{fill:#FFFFFF;}
</style>
<g>
	<g id="Simbol_2_">
		<g>
			<path class="st0" d="M89.5,47.2c-2.2-0.9-4.3-2.1-6.3-3.5c-2-1.5-4-3.2-5.8-5.1c-3.6-3.9-6.4-8.5-8.3-13.4
				c2.3-7.8,2.3-14.1,0.2-20.9c3-1.2,6.2-2.2,9.5-2.8c3.5-0.7,7.1-1,10.7-1s7.2,0.4,10.7,1c3.3,0.6,6.4,1.6,9.5,2.8
				c-2.1,6.8-2,13.1,0.2,20.9c-1.8,4.9-4.7,9.5-8.3,13.4c-1.8,1.9-3.7,3.7-5.8,5.1C93.8,45.1,91.7,46.3,89.5,47.2z"/>
			<path class="st1" d="M95.9,44.1c6.3-4.4,11.6-11.3,14.4-18.9c-1.9-6.4-2.3-11.8-1.2-17.4L109,7.1l-4.4-1.5L104.2,6
				c-1,5.6-0.7,11,0.9,17.4C101,32.9,93.8,38.7,88.7,41l0,0.7l6,2.6L95.9,44.1z"/>
			<path class="st2" d="M89.5,0c-6.7,0-13,1.2-18.8,3.3l-0.2,0.4c1.3,3.7,1.8,6.6,2,9.4c0.2,3.4-0.1,6.9-1.2,11l0,0.1l0,0.1
				c0.5,1.1,1.1,2.3,1.8,3.3c0.7,1.1,1.4,2.1,2.2,3.1c0.8,1,1.6,1.9,2.6,2.9c0.9,0.9,1.9,1.8,2.9,2.6c1,0.8,2.1,1.6,3.2,2.4
				c1.1,0.7,2.3,1.5,3.6,2.2c0.2,0.1,0.4,0.2,0.6,0.3l0.3,0l0-0.2c0.3-0.1,0.5-0.2,0.8-0.4c-5-2.5-11.6-8.1-15.6-17.2
				c1.7-6.3,2-11.8,0.9-17.4c4.6-1.4,9.5-2.1,14.6-2.1c7.1,0,13.8,1.4,19.7,3.9c0.3-1.2,0.6-2.5,1-3.8C104,1.5,96.9,0,89.5,0z"/>
			<path class="st3" d="M95.9,44.1C84.4,39.9,76,33.3,71.7,24.2c2.1-8.6,1.3-14-1-20.9l0,0c-0.6,0.2-1.3,0.5-1.9,0.7
				c2.2,7,2.1,13.3-0.2,21.2C72.5,35.3,80.4,44,89.5,47.6C91.7,46.7,93.9,45.5,95.9,44.1z"/>
		</g>
		<path d="M85.9,18.5L85.9,18.5c1.7-0.3,3-1.1,3-3c0-2.5-2-3.6-4.4-3.6h-6.6v1.4c0.9,0,1.2,0.2,1.2,1.3v9.8c0,0.4,0.3,0.8,0.8,0.8
			l5.1,0c3.3,0,4.5-1.3,4.5-3.4C89.3,19.9,88.3,18.7,85.9,18.5z M82.5,13.4h0.8c1.3,0,1.9,0.6,1.9,2.2c0,1.8-0.5,2.2-1.8,2.2h-0.8
			V13.4z M83.7,23.7h-1.1v-4.5h1.3c1.3,0,1.9,0.6,1.9,2.3C85.7,23.3,85,23.7,83.7,23.7z M101.2,12.6l0.2,3h-1.7
			c-0.4-1.6-0.5-2.2-1.8-2.2h-0.6v11.7l-3.5,0V13.4h-0.6c-1.3,0-1.4,0.6-1.8,2.2H90l0.2-3c0-0.4,0.4-0.7,0.8-0.7h9.6
			C100.9,11.9,101.2,12.2,101.2,12.6z"/>
	</g>
	<path class="st4" d="M127.8,11.9l0.2,3.5h-1.4c-0.4-1.6-0.5-2.2-1.7-2.2H124v9.7c0,1.1,0.4,1.4,1.5,1.4v0.9h-6v-0.9
		c1.1,0,1.5-0.2,1.5-1.4v-9.7h-0.8c-1.2,0-1.4,0.6-1.7,2.2H117l0.2-3.5H127.8z M135.9,19.2c0.9,0.2,1.7,0.8,2.1,1.4
		c0.5,0.7,0.9,1.4,1.5,2.6c0.4,0.7,0.5,1.1,1.5,1.1v0.9H137c-0.8-2-1.1-2.6-1.9-3.9c-0.7-1.2-1.1-1.5-2-1.6v3.3
		c0,1.1,0.3,1.4,1.3,1.4v0.9h-5.6v-0.9c1,0,1.3-0.3,1.3-1.4v-8.7c0-1.1-0.3-1.4-1.3-1.4v-0.9h6c2.7,0,4.7,1,4.7,3.8
		C139.6,18,138,19.1,135.9,19.2L135.9,19.2z M134.3,13.2h-1.2v5h1.1c1.4,0,2.1-0.5,2.1-2.5C136.4,13.9,135.8,13.2,134.3,13.2z
		 M148.5,21.6h-4.1l-0.5,1.6c-0.1,0.2-0.1,0.4-0.1,0.5c0,0.5,0.4,0.5,1.2,0.6v0.9h-4.2v-0.9c0.8-0.1,1.1-0.3,1.4-1.3l3.6-11.1h2.4
		l3.8,11.1c0.3,0.9,0.5,1.2,1.3,1.3v0.9h-5.4v-0.9c0.9,0,1.2-0.2,1.2-0.6c0-0.1,0-0.3-0.1-0.5L148.5,21.6z M144.8,20.2h3.2l-1-3.2
		c-0.3-1.1-0.5-1.8-0.6-2.2h-0.1c-0.1,0.4-0.2,1-0.6,2.2L144.8,20.2z M163.5,14.2c0-1.1-0.3-1.4-1.3-1.4v-0.9h4.2v0.9
		c-1,0-1.3,0.3-1.3,1.4v11H163l-4.7-7.3c-0.9-1.4-1.4-2.4-1.6-2.8h-0.1c0.1,0.4,0.2,1.7,0.2,2.9v4.9c0,1.1,0.3,1.4,1.3,1.4v0.9h-4.3
		v-0.9c1,0,1.3-0.3,1.3-1.4v-8.7c0-1.1-0.3-1.4-1.3-1.4v-0.9h4.4l4,6.4c0.6,0.9,1,1.9,1.3,2.5h0.1c-0.1-0.4-0.2-1.7-0.2-2.8V14.2z
		 M167.9,24.3v-2.5h2c0.2,1.8,0.9,2.5,2.4,2.5c1.4,0,2.3-0.7,2.3-2.1c0-1.2-0.5-1.8-2-2.2l-1.4-0.4c-2-0.5-3.2-1.5-3.2-3.8
		c0-2.7,1.8-4.1,4.6-4.1c2.1,0,3.3,0.6,3.9,0.9v2.6h-1.9c-0.2-1.4-0.7-2.3-2.2-2.3c-1.3,0-1.9,0.7-1.9,1.8c0,1,0.5,1.6,1.8,2
		l1.3,0.3c2.2,0.6,3.6,1.7,3.6,4.1c0,2.7-1.8,4.3-5.1,4.3C170,25.4,168.8,24.8,167.9,24.3z M180.1,14.2c0-1.1-0.3-1.4-1.3-1.4v-0.9
		h5.6v0.9c-1,0-1.3,0.3-1.3,1.4v8.7c0,1.1,0.3,1.4,1.3,1.4v0.9h-5.6v-0.9c1,0,1.3-0.3,1.3-1.4V14.2z M190.2,23.9h1.8
		c1.2,0,1.9-0.6,2.2-2.4h1.5l-0.3,3.7h-9.5v-0.9c1,0,1.3-0.3,1.3-1.4v-8.7c0-1.1-0.3-1.4-1.3-1.4v-0.9h5.6v0.9c-1,0-1.3,0.3-1.3,1.4
		V23.9z M199.4,25.1L195.6,14c-0.3-1-0.5-1.1-1.3-1.2v-0.9h5.5v0.9c-0.8,0-1.1,0.3-1.1,0.7c0,0.1,0,0.3,0.1,0.4l1.9,6.2
		c0.2,0.9,0.5,2,0.6,2.5h0.1c0.1-0.5,0.3-1.5,0.6-2.5l1.9-6.1c0.1-0.2,0.1-0.3,0.1-0.4c0-0.5-0.3-0.7-1.2-0.7v-0.9h4.2v0.9
		c-0.8,0.1-1.1,0.2-1.4,1.3l-3.7,11.1H199.4z M212.9,21.6h-4.1l-0.5,1.6c-0.1,0.2-0.1,0.4-0.1,0.5c0,0.5,0.4,0.5,1.2,0.6v0.9h-4.2
		v-0.9c0.8-0.1,1.1-0.3,1.4-1.3l3.6-11.1h2.4l3.8,11.1c0.3,0.9,0.5,1.2,1.3,1.3v0.9h-5.4v-0.9c0.9,0,1.2-0.2,1.2-0.6
		c0-0.1,0-0.3-0.1-0.5L212.9,21.6z M209.3,20.2h3.2l-1-3.2c-0.3-1.1-0.5-1.8-0.6-2.2h-0.1c-0.1,0.4-0.2,1-0.6,2.2L209.3,20.2z
		 M228,14.2c0-1.1-0.3-1.4-1.3-1.4v-0.9h4.2v0.9c-1,0-1.3,0.3-1.3,1.4v11h-2.1l-4.7-7.3c-0.9-1.4-1.4-2.4-1.6-2.8h-0.1
		c0.1,0.4,0.2,1.7,0.2,2.9v4.9c0,1.1,0.3,1.4,1.3,1.4v0.9h-4.3v-0.9c1,0,1.3-0.3,1.3-1.4v-8.7c0-1.1-0.3-1.4-1.3-1.4v-0.9h4.4l4,6.4
		c0.6,0.9,1,1.9,1.3,2.5h0.1c-0.1-0.4-0.2-1.7-0.2-2.8V14.2z M233.6,14.2c0-1.1-0.3-1.4-1.3-1.4v-0.9h5.6v0.9c-1,0-1.3,0.3-1.3,1.4
		v8.7c0,1.1,0.3,1.4,1.3,1.4v0.9h-5.6v-0.9c1,0,1.3-0.3,1.3-1.4V14.2z M246.1,21.6H242l-0.5,1.6c-0.1,0.2-0.1,0.4-0.1,0.5
		c0,0.5,0.4,0.5,1.2,0.6v0.9h-4.2v-0.9c0.8-0.1,1.1-0.3,1.4-1.3l3.6-11.1h2.4l3.8,11.1c0.3,0.9,0.5,1.2,1.3,1.3v0.9h-5.4v-0.9
		c0.9,0,1.2-0.2,1.2-0.6c0-0.1,0-0.3-0.1-0.5L246.1,21.6z M242.4,20.2h3.2l-1-3.2c-0.3-1.1-0.5-1.8-0.6-2.2h-0.1
		c-0.1,0.4-0.2,1-0.6,2.2L242.4,20.2z M251.4,13.7c0-1.8,1.3-3,3-3c1.6,0,3,1.2,3,3c0,1.8-1.3,3-3,3
		C252.7,16.6,251.4,15.5,251.4,13.7z M257,13.7c0-1.7-1.2-2.7-2.6-2.7c-1.4,0-2.6,1-2.6,2.7c0,1.6,1.2,2.7,2.6,2.7
		C255.8,16.3,257,15.3,257,13.7z M254.4,15.4h-1.5v-0.2c0.4,0,0.5-0.2,0.5-0.5v-2c0-0.4,0-0.5-0.5-0.5v-0.2h1.4
		c0.8,0,1.3,0.2,1.3,0.9c0,0.7-0.4,0.9-1,0.9v0c0.3,0.1,0.5,0.3,0.7,0.6c0.1,0.1,0.2,0.3,0.3,0.5c0.1,0.3,0.2,0.3,0.5,0.3v0.2h-0.9
		c-0.1-0.3-0.3-0.6-0.4-0.9c-0.3-0.5-0.4-0.7-0.8-0.7v0.9c0,0.4,0.1,0.5,0.5,0.5V15.4z M254.1,12.2h-0.3v1.4h0.4
		c0.6,0,0.8-0.2,0.8-0.7C255,12.4,254.8,12.2,254.1,12.2z M0,24.3c1,0,1.3-0.3,1.3-1.4v-8.7c0-1.1-0.3-1.4-1.3-1.4v-0.9h6.1
		c2.7,0,4.5,1.1,4.5,3.5c0,1.8-1.1,2.6-2.8,2.9v0.1c2.3,0.2,3.3,1.5,3.3,3.3c0,2.3-1.5,3.5-4.5,3.5H0V24.3z M5.5,17.8
		c1.5,0,2-0.5,2-2.2c0-1.7-0.6-2.3-2.1-2.3H4.3v4.5H5.5z M5.8,23.9c1.6,0,2.2-0.5,2.2-2.4c0-1.7-0.6-2.4-2.2-2.4H4.3v4.8H5.8z
		 M19.6,21.6h-4.1L15,23.2C15,23.4,15,23.6,15,23.7c0,0.5,0.4,0.5,1.2,0.6v0.9H12v-0.9c0.8-0.1,1.1-0.3,1.4-1.3L17,11.9h2.4L23.2,23
		c0.3,0.9,0.5,1.2,1.3,1.3v0.9H19v-0.9c0.9,0,1.2-0.2,1.2-0.6c0-0.1,0-0.3-0.1-0.5L19.6,21.6z M15.9,20.2h3.2l-1-3.2
		c-0.3-1.1-0.5-1.8-0.6-2.2h-0.1c-0.1,0.4-0.2,1-0.6,2.2L15.9,20.2z M34.7,14.2c0-1.1-0.3-1.4-1.3-1.4v-0.9h4.2v0.9
		c-1,0-1.3,0.3-1.3,1.4v11h-2.1l-4.7-7.3c-0.9-1.4-1.4-2.4-1.6-2.8h-0.1c0.1,0.4,0.2,1.7,0.2,2.9v4.9c0,1.1,0.3,1.4,1.3,1.4v0.9H25
		v-0.9c1,0,1.3-0.3,1.3-1.4v-8.7c0-1.1-0.3-1.4-1.3-1.4v-0.9h4.4l4,6.4c0.6,0.9,1,1.9,1.3,2.5h0.1c-0.1-0.4-0.2-1.7-0.2-2.8V14.2z
		 M39,18.7c0-4.8,2.5-7,6.2-7c1.9,0,3.2,0.4,4.1,1v2.6h-2.1c-0.3-1.5-0.7-2.2-2.1-2.2c-1.8,0-2.8,1.2-2.8,5.6c0,4.6,1.1,5.5,2.8,5.5
		c1.5,0,2-0.7,2.3-2.3h2v2.5c-0.8,0.6-2.4,1-4.3,1C41.1,25.4,39,23,39,18.7z M57.6,21.6h-4.1L53,23.2c-0.1,0.2-0.1,0.4-0.1,0.5
		c0,0.5,0.4,0.5,1.2,0.6v0.9H50v-0.9c0.8-0.1,1.1-0.3,1.4-1.3L55,11.9h2.4L61.2,23c0.3,0.9,0.5,1.2,1.3,1.3v0.9H57v-0.9
		c0.9,0,1.2-0.2,1.2-0.6c0-0.1,0-0.3-0.1-0.5L57.6,21.6z M53.9,20.2h3.2l-1-3.2c-0.3-1.1-0.5-1.8-0.6-2.2h-0.1
		c-0.1,0.4-0.2,1-0.6,2.2L53.9,20.2z"/>
</g>
</svg>
