<?xml version="1.0" encoding="utf-8"?>
<!-- Generator: Adobe Illustrator 25.4.2, SVG Export Plug-In . SVG Version: 6.00 Build 0)  -->
<svg version="1.1" id="Layer_1" xmlns="http://www.w3.org/2000/svg" xmlns:xlink="http://www.w3.org/1999/xlink" x="0px" y="0px"
	 viewBox="0 0 212.7 111.1" style="enable-background:new 0 0 212.7 111.1;" xml:space="preserve">
<style type="text/css">
	.st0{fill:#FAD902;}
	.st1{fill:#73BF58;}
	.st2{fill:#1999D6;}
	.st3{fill:#F69324;}
	.st4{fill:#EB3747;}
	.st5{fill:#C71F44;}
	.st6{fill:#FFFFFF;}
</style>
<g>
	<path class="st0" d="M19.9,40.7c0,0-16.4-6.7-11.2-13.4C12.1,23.6,18.5,33.8,19.9,40.7"/>
	<path class="st1" d="M13.2,52.3c0,0-13.1,0.4-12.3-6.3C1.6,42.4,9.6,47.8,13.2,52.3"/>
	<path class="st2" d="M11,64.3c0,0-8.8,4.6-10.9-1C-0.9,60,6.7,61.8,11,64.3"/>
	<path class="st3" d="M32.7,30.9c0,0-18.2-13.2-9.2-19.7C29,7.9,33.3,22.2,32.7,30.9"/>
	<path class="st4" d="M49.4,26.1c0,0-13.9-23.5,0.3-26.1C57.9-0.9,55,16.9,49.4,26.1"/>
	<path class="st5" d="M69,28.4c0,0-1.6-32.2,16.1-27.3C95.1,4.6,81,21.7,69,28.4"/>
	<path class="st6" d="M12.6,77.1c0,0-4.8,6.3-8.5,2.7C2.1,77.6,8.4,76.5,12.6,77.1"/>
	<path class="st6" d="M17.9,88.6c0,0-2,5.8-5.5,3.9C10.4,91.2,14.7,89,17.9,88.6"/>
	<path class="st6" d="M35.5,74.5c0,7,2.1,9.4,7.7,9.4H54v5.4H42.9c-3.8,0-6.7-0.3-9.8-2.7c-3.2-2.6-4.8-6.7-4.8-12.3
		C28.3,63.1,33,58,43,58H54v5.4H43.2C37.6,63.4,35.5,66.7,35.5,74.5"/>
	<path class="st6" d="M65.8,63.6v7.9h8.1c3.9,0,5.8-0.8,5.8-4c0-3.2-1.9-3.9-5.8-3.9H65.8 M75.5,58c7.4,0,10.9,2.8,10.9,9.4
		c0,4.8-2.3,7.9-6.3,8.8l7.8,13.1h-7.4L73.6,77h-7.8v12.3h-6.6V58H75.5z"/>
	<path class="st6" d="M97.9,70.7h18.2v5.4H97.8c0,5.6,2.3,7.7,7.5,7.7h10.8v5.4H105c-3.8,0-6.7-0.3-9.8-2.7
		c-3.2-2.6-4.8-6.7-4.8-12.3c0-11.1,4.7-16.2,14.7-16.2h10.9v5.4h-10.8C100.6,63.4,98.2,65.8,97.9,70.7"/>
	<path class="st6" d="M128.9,63.4v20.4h7.6c5.8,0,7.7-2.5,7.7-10.2c0-7.7-1.8-10.2-7.7-10.2H128.9 M136.7,58
		c10.1,0,14.7,5.1,14.7,16.2c0,5.7-1.6,9.8-4.8,12.3c-3.1,2.4-6,2.7-9.8,2.7h-14.5V58H136.7z"/>
	<path class="st6" d="M161.9,70.7h18.2v5.4h-18.3c0,5.6,2.3,7.7,7.5,7.7h10.8v5.4H169c-3.8,0-6.7-0.3-9.8-2.7
		c-3.2-2.6-4.8-6.7-4.8-12.3c0-11.1,4.7-16.2,14.7-16.2h10.9v5.4h-10.8C164.5,63.4,162.1,65.8,161.9,70.7"/>
	<polygon class="st6" points="183.8,58 191.6,58 198,67.9 204.4,58 212,58 201.9,73.2 212.7,89.3 204.9,89.3 198.3,78.4 191.3,89.3 
		183.5,89.3 194.4,73.6 	"/>
	<path class="st6" d="M36.1,108c-2.1,0-3.5-1.3-3.5-3.3v-7.5h2v7.5c0,1.1,0.7,1.8,1.6,1.8c0.9,0,1.6-0.6,1.6-1.8v-7.5h1.8v7.5
		C39.6,106.6,38.2,108,36.1,108"/>
	<path class="st6" d="M46.8,107.8v-5.9c0-0.7-0.3-1.4-1.5-1.4c-0.6,0-0.9,0.1-1.3,0.2v7h-1.9v-7.9c0.8-0.4,1.9-0.6,3.3-0.6
		c2.5,0,3.3,1.2,3.3,2.5v5.9H46.8"/>
	<path class="st6" d="M58.5,100.5c-0.4,0-0.7,0.1-1,0.2v6c0.2,0.1,0.5,0.1,0.8,0.1c1.5,0,2.2-1.2,2.2-3.2
		C60.6,101.6,60,100.5,58.5,100.5 M58.8,107.9c-0.5,0-1-0.1-1.3-0.2v3.4h-1.9V99.9c0.6-0.3,1.6-0.6,2.9-0.6c2.4,0,3.9,1.6,3.9,4.2
		C62.4,106.3,60.9,107.9,58.8,107.9"/>
	<path class="st6" d="M68.8,103.3c-1.8,0.2-2.9,0.6-2.9,2.1c0,1.1,0.6,1.5,1.7,1.5c0.4,0,0.8-0.1,1.1-0.2V103.3 M67.5,108
		c-2.3,0-3.4-0.9-3.4-2.5c0-2.2,2.1-2.8,4.6-3.1v-0.4c0-1.1-0.7-1.4-1.7-1.4c-0.8,0-1.6,0.3-2.1,0.5l-0.4-1.1
		c0.5-0.3,1.5-0.6,2.9-0.6c1.7,0,3.1,0.7,3.1,2.9v5.1C69.8,107.7,68.8,108,67.5,108"/>
	<path class="st6" d="M74.7,107.9c-1,0-1.8-0.3-2.3-0.6l0.5-1.2c0.3,0.2,0.9,0.5,1.6,0.5c0.8,0,1.3-0.5,1.3-1.2c0-0.7-0.4-1-1.2-1.4
		c-1.6-0.6-1.9-1.5-1.9-2.3c0-1.3,1-2.4,2.6-2.4c0.9,0,1.6,0.2,2.2,0.6l-0.5,1.1c-0.2-0.2-0.7-0.5-1.3-0.5c-0.8,0-1.2,0.5-1.2,1.1
		c0,0.7,0.5,1,1.2,1.3c1.6,0.6,2,1.5,2,2.5C77.7,106.8,76.5,107.9,74.7,107.9"/>
	<path class="st6" d="M86.1,107.9c-1,0-1.8-0.3-2.3-0.6l0.5-1.2c0.3,0.2,0.9,0.5,1.6,0.5c0.8,0,1.3-0.5,1.3-1.2c0-0.7-0.4-1-1.2-1.4
		c-1.6-0.6-1.9-1.5-1.9-2.3c0-1.3,1.1-2.4,2.6-2.4c0.9,0,1.6,0.2,2.2,0.6l-0.5,1.1c-0.2-0.2-0.7-0.5-1.3-0.5c-0.8,0-1.2,0.5-1.2,1.1
		c0,0.7,0.5,1,1.2,1.3c1.6,0.6,2,1.5,2,2.5C89,106.8,87.9,107.9,86.1,107.9"/>
	<path class="st6" d="M93.9,100.5c-0.4,0-0.7,0.1-1,0.2v6c0.2,0.1,0.5,0.1,0.8,0.1c1.5,0,2.2-1.2,2.2-3.2
		C96,101.6,95.4,100.5,93.9,100.5 M94.2,107.9c-0.5,0-1-0.1-1.3-0.2v3.4h-1.9V99.9c0.6-0.3,1.6-0.6,2.9-0.6c2.4,0,3.9,1.6,3.9,4.2
		C97.8,106.3,96.4,107.9,94.2,107.9"/>
	<path class="st6" d="M103.6,100.7c-0.6-0.2-1.3-0.2-1.8,0.1v7h-1.9v-7.9c0.9-0.4,1.9-0.6,4-0.6L103.6,100.7"/>
	<path class="st6" d="M108.5,100.2c-1.1,0-1.8,0.9-1.8,2.9l3.4-0.5C110.1,100.9,109.5,100.2,108.5,100.2 M106.8,104
		c0.2,1.6,0.9,2.3,2.3,2.3c1,0,1.6-0.2,2.1-0.5l0.4,1.2c-0.6,0.3-1.5,0.6-2.7,0.6c-2.4,0-3.8-1.5-3.8-4.3c0-2.7,1.4-4.3,3.5-4.3
		c2.2,0,3.3,1.4,3.3,4v0.2L106.8,104z"/>
	<path class="st6" d="M127.8,107.5v-5.9c0-0.7-0.4-1.4-1.4-1.4c-0.6,0-1,0.2-1.4,0.6v6.7h-1.9v-5.9c0-0.8-0.5-1.3-1.6-1.3
		c-0.6,0-0.9,0.1-1.2,0.2v7h-1.9v-7.8c0.8-0.4,1.7-0.6,3.1-0.6c1.3,0,2.1,0.4,2.6,0.9c0.6-0.5,1.4-0.9,2.7-0.9c2,0,2.8,1.2,2.8,2.5
		v5.9H127.8"/>
	<path class="st6" d="M136.3,102.9c-1.8,0.2-2.9,0.6-2.9,2.1c0,1.1,0.6,1.5,1.7,1.5c0.4,0,0.8-0.1,1.1-0.2V102.9 M135.1,107.6
		c-2.3,0-3.4-0.9-3.4-2.5c0-2.2,2.1-2.8,4.6-3.1v-0.4c0-1.1-0.7-1.4-1.6-1.4c-0.8,0-1.6,0.3-2.1,0.5l-0.4-1.1
		c0.5-0.3,1.5-0.6,2.8-0.6c1.7,0,3.1,0.7,3.1,2.9v5.1C137.4,107.4,136.4,107.6,135.1,107.6"/>
	<path class="st6" d="M140.5,99.2h1.9v8.3h-1.9V99.2z M141.5,97.7c-0.6,0-1-0.4-1-0.9c0-0.5,0.5-0.9,1-0.9c0.6,0,1,0.4,1,0.9
		C142.5,97.3,142.1,97.7,141.5,97.7"/>
	<path class="st6" d="M152.4,100.2c-0.5,0-0.8,0.1-1.1,0.2v5.9c0.2,0.1,0.6,0.2,1,0.2c1.5,0,2.1-1.3,2.1-3.2
		C154.3,101.5,153.8,100.2,152.4,100.2 M152.2,107.6c-1.3,0-2.2-0.3-2.7-0.6V95.4h1.9v4c0.4-0.2,0.8-0.3,1.6-0.3
		c1.9,0,3.3,1.6,3.3,4.1C156.2,105.9,154.8,107.6,152.2,107.6"/>
	<path class="st6" d="M158.3,99.2h1.9v8.3h-1.9V99.2z M159.3,97.7c-0.6,0-1-0.4-1-0.9c0-0.5,0.5-0.9,1-0.9c0.6,0,1,0.4,1,0.9
		C160.3,97.3,159.8,97.7,159.3,97.7"/>
	<path class="st6" d="M167.3,107.5v-5.9c0-0.7-0.3-1.4-1.5-1.4c-0.6,0-0.9,0.1-1.3,0.2v7h-1.9v-7.8c0.8-0.4,1.8-0.6,3.2-0.6
		c2.5,0,3.3,1.2,3.3,2.5v5.9H167.3"/>
	<path class="st6" d="M174.7,100.2c-1.1,0-1.8,0.9-1.8,2.9l3.4-0.5C176.4,100.9,175.8,100.2,174.7,100.2 M173,104
		c0.2,1.6,0.9,2.3,2.3,2.3c1,0,1.6-0.2,2.1-0.5l0.4,1.2c-0.6,0.3-1.5,0.6-2.7,0.6c-2.4,0-3.8-1.5-3.8-4.3c0-2.7,1.4-4.3,3.5-4.3
		c2.2,0,3.3,1.4,3.3,4v0.2L173,104z"/>
</g>
</svg>
